<?xml version="1.0" encoding="UTF-8"?>
<svg version="1.1" xmlns="http://www.w3.org/2000/svg" width="192" height="192">
<path d="M0 0 C0.66 0.33 1.32 0.66 2 1 C2 21.46 2 41.92 2 63 C2.66 63 3.32 63 4 63 C4.25007813 62.26265625 4.50015625 61.5253125 4.7578125 60.765625 C6.10130562 57.77445163 7.5530939 56.04562037 9.875 53.75 C10.55304687 53.06421875 11.23109375 52.3784375 11.9296875 51.671875 C14 50 14 50 16.1953125 49.453125 C16.79085938 49.30359375 17.38640625 49.1540625 18 49 C18.33 48.01 18.66 47.02 19 46 C22.4934597 44.25327015 25.06845568 43 29 43 C29 42.34 29 41.68 29 41 C36.81816322 38.25506495 43.67889465 36.32379279 52 37 C52 36.34 52 35.68 52 35 C53.00160156 35.14695313 54.00320312 35.29390625 55.03515625 35.4453125 C57.58322061 35.81051157 60.12572791 36.13131503 62.68359375 36.4296875 C69.55892113 37.24528305 75.66831782 38.15720392 82 41 C82 41.66 82 42.32 82 43 C82.70125 43.103125 83.4025 43.20625 84.125 43.3125 C87.39137647 44.09359003 90.0471852 45.42058743 93 47 C93 47.66 93 48.32 93 49 C93.8971875 49.1546875 93.8971875 49.1546875 94.8125 49.3125 C97.31258286 50.09824033 98.37535082 50.96918853 100 53 C100 53.66 100 54.32 100 55 C100.804375 55.2475 101.60875 55.495 102.4375 55.75 C103.7059375 56.36875 103.7059375 56.36875 105 57 C105.3721042 58.32303717 105.70630173 59.65737935 106 61 C106.598125 61.28875 107.19625 61.5775 107.8125 61.875 C114.61863135 65.37529612 118.25182162 77.02011332 121 84 C125.27112156 97.48480738 123.57039529 112.5897653 120 126 C119.34 126 118.68 126 118 126 C117.8453125 127.299375 117.8453125 127.299375 117.6875 128.625 C116.96601586 132.16683123 115.72876739 134.84312042 114 138 C113.34 138 112.68 138 112 138 C111.896875 138.556875 111.79375 139.11375 111.6875 139.6875 C110.11627653 144.97252441 107.29914903 147.72445788 103 151 C102.154375 151.886875 101.30875 152.77375 100.4375 153.6875 C98.12174417 155.88449912 97.09854046 156.65571773 94 157 C94 157.66 94 158.32 94 159 C87.17789118 164.38992796 79.26291136 166.76403383 71 169 C69.90945312 169.36351562 68.81890625 169.72703125 67.6953125 170.1015625 C63.21817563 171.19008415 59.14463045 171.22099951 54.5625 171.125 C53.73556641 171.11597656 52.90863281 171.10695312 52.05664062 171.09765625 C50.03763292 171.07431512 48.01877644 171.03845288 46 171 C46 170.34 46 169.68 46 169 C45.31035156 168.96261719 44.62070312 168.92523438 43.91015625 168.88671875 C37.51353535 168.43921852 31.96929752 167.34350199 26 165 C26 164.34 26 163.68 26 163 C25.071875 162.71125 24.14375 162.4225 23.1875 162.125 C20 161 20 161 17 159 C17 158.34 17 157.68 17 157 C16.44828125 156.93941406 15.8965625 156.87882813 15.328125 156.81640625 C11.96987598 155.63876523 10.20085251 153.48509669 7.75 150.9375 C6.85796875 150.01839844 5.9659375 149.09929687 5.046875 148.15234375 C4.03367187 147.08693359 4.03367187 147.08693359 3 146 C2.97494385 146.63091553 2.9498877 147.26183105 2.92407227 147.91186523 C2.80845863 150.75396825 2.68557684 153.59571083 2.5625 156.4375 C2.50352539 157.92733398 2.50352539 157.92733398 2.44335938 159.44726562 C2.40146484 160.39150391 2.35957031 161.33574219 2.31640625 162.30859375 C2.27974854 163.18314209 2.24309082 164.05769043 2.20532227 164.95874023 C2 167 2 167 1 168 C-0.83115883 168.09851171 -2.66619933 168.12972629 -4.5 168.125 C-5.5003125 168.12757813 -6.500625 168.13015625 -7.53125 168.1328125 C-10 168 -10 168 -11 167 C-11.10350853 164.86572957 -11.13523457 162.72797439 -11.14044189 160.59120178 C-11.14341302 159.9138888 -11.14638414 159.23657581 -11.1494453 158.53873819 C-11.15816795 156.25245708 -11.15964352 153.96622811 -11.16113281 151.67993164 C-11.16575842 150.04758084 -11.17078273 148.41523113 -11.17617798 146.78288269 C-11.1893277 142.33666885 -11.19575179 137.89047012 -11.20018864 133.44423985 C-11.20311488 130.66975337 -11.20721879 127.89527106 -11.21169281 125.12078667 C-11.22537375 116.44966591 -11.23503781 107.77855465 -11.2388947 99.10742384 C-11.24337881 89.07981462 -11.26094053 79.05234148 -11.2898953 69.02477366 C-11.31147104 61.2855053 -11.32159676 53.54627534 -11.32293582 45.80697721 C-11.32398669 41.17907105 -11.3299542 36.55129269 -11.34775543 31.92341805 C-11.36416562 27.57239755 -11.36642624 23.2216019 -11.35761642 18.8705616 C-11.35684228 17.27012533 -11.36123811 15.66967732 -11.37107468 14.06927109 C-11.38368096 11.89116892 -11.37798042 9.71387692 -11.36749268 7.53578186 C-11.36895924 6.31478318 -11.3704258 5.0937845 -11.3719368 3.83578587 C-11.24919765 2.89997653 -11.12645851 1.96416719 -11 1 C-6.79188352 -1.80541099 -4.90079759 -0.85569482 0 0 Z M24 60 C23.34515625 60.49113281 22.6903125 60.98226562 22.015625 61.48828125 C11.85391736 69.7397454 3.88462787 81.88452852 2 95 C1.38217696 109.31050588 2.40200484 120.43967786 10 133 C11.97259478 135.18651546 11.97259478 135.18651546 14 137 C19 142 19 142 20.8671875 143.96484375 C27.801138 150.58130567 37.06639735 154.69308952 46.625 155.1875 C47.40875 155.125625 48.1925 155.06375 49 155 C49 155.66 49 156.32 49 157 C55.69613438 157.1979153 61.62716235 157.31739551 68 155 C68.86496094 154.72027344 69.72992188 154.44054687 70.62109375 154.15234375 C76.57425913 152.1571852 81.04011246 149.82324665 86 146 C86.99 145.67 87.98 145.34 89 145 C98.03469799 136.92242892 105.15648718 124.04313517 107 112 C107.88909043 95.12437978 104.61897221 80.70189962 94 67 C92.37667033 65.61423077 90.71275535 64.27358732 89 63 C88.525625 62.484375 88.05125 61.96875 87.5625 61.4375 C84.93055872 59.01611402 81.63043556 57 78 57 C78 56.34 78 55.68 78 55 C60.48371266 47.72050396 39.45928697 48.40553477 24 60 Z " fill="#221E20" transform="translate(14,11)"/>
<path d="M0 0 C2.16134262 1.1015749 2.16134262 1.1015749 4 3 C4.49219131 5.94600964 4.49219131 5.94600964 4.48101807 9.62480164 C4.48443577 10.30115105 4.48785347 10.97750046 4.49137473 11.67434531 C4.49797504 13.94567859 4.47594409 16.21583578 4.45410156 18.48706055 C4.45297354 20.11309786 4.45360606 21.73913721 4.45587158 23.36517334 C4.45702143 27.78445393 4.43346853 32.20330215 4.40557575 36.62248206 C4.38060709 41.23892522 4.37822369 45.85537779 4.37347412 50.47187805 C4.36103098 59.21607629 4.32819131 67.96007501 4.28807616 76.70418531 C4.24340004 86.65808811 4.22138189 96.61200034 4.20129442 106.56597841 C4.15945982 127.04409706 4.0890818 147.52203597 4 168 C1.40541894 169.29729053 -0.60447598 169.2042812 -3.5 169.25 C-4.96953125 169.28867187 -4.96953125 169.28867187 -6.46875 169.328125 C-7.72171875 169.16570312 -7.72171875 169.16570312 -9 169 C-11.4014346 165.39784809 -11.25124854 163.79257251 -11.25396729 159.50927734 C-11.25708727 158.84729528 -11.26020725 158.18531322 -11.26342177 157.5032711 C-11.27141158 155.28073652 -11.26507444 153.05847422 -11.25878906 150.8359375 C-11.26149849 149.2443221 -11.26505915 147.65270795 -11.26940918 146.06109619 C-11.27854117 141.73473294 -11.2749856 137.40846487 -11.26865101 133.08209991 C-11.26359521 128.55912516 -11.26828129 124.03615867 -11.27142334 119.51318359 C-11.27506421 111.91697727 -11.27026072 104.3208098 -11.26074219 96.72460938 C-11.2498574 87.93647078 -11.2533829 79.14842497 -11.264395 70.36028862 C-11.27346443 62.82138206 -11.27475484 55.28250347 -11.26951766 47.74359322 C-11.26639606 43.23812463 -11.26599381 38.73269969 -11.27259064 34.22723389 C-11.27835847 29.99193721 -11.27437755 25.75676044 -11.26280212 21.52147675 C-11.26015252 19.96500599 -11.26092574 18.40852519 -11.26532745 16.85205841 C-11.2707726 14.73147589 -11.26396167 12.61128035 -11.25396729 10.49072266 C-11.25321323 9.30274078 -11.25245918 8.11475891 -11.25168228 6.89077759 C-11 4 -11 4 -9 1 C-5.70952793 -0.09682402 -3.44927034 -0.28157309 0 0 Z " fill="#3A53A4" transform="translate(185,10)"/>
</svg>
